# xmcd CD database file
#
# Track frame offsets:
#	150
#	11386
#	39766
#	75043
#	100919
#	122444
#	146944
#	162967
#	184465
#	203312
#	233782
#	254579
#
# Disc length: 3677 seconds
#
# Revision: 0
# Processed by: cddbd v1.5.2PL0 Copyright (c) Steve Scherf et al.
# Submitted via: CDex 1.70beta2
#
DISCID=8c0e5b0c
DTITLE=Sarah Elgeti Quintet - Into the Open
DYEAR=2011
DGENRE=Jazz
TTITLE0=Home
TTITLE1=Bossa among the trees
TTITLE2=Out in the fields
TTITLE3=Downstairs
TTITLE4=Ringe I vand
TTITLE5=But I wish I could
TTITLE6=Trying to forget
TTITLE7=Blustering waves
TTITLE8=Clouds
TTITLE9=Angelique
TTITLE10=Night moves
TTITLE11=Bossa among the trees [remix]
EXTD=YEAR: 2011
EXTT0=
EXTT1=
EXTT2=
EXTT3=
EXTT4=
EXTT5=
EXTT6=
EXTT7=
EXTT8=
EXTT9=
EXTT10=
EXTT11=
PLAYORDER=
